<?xml version="1.0" encoding="utf-8"?>
<!-- Generator: Adobe Illustrator 16.0.0, SVG Export Plug-In . SVG Version: 6.00 Build 0)  -->
<!DOCTYPE svg PUBLIC "-//W3C//DTD SVG 1.1//EN" "http://www.w3.org/Graphics/SVG/1.1/DTD/svg11.dtd">
<svg version="1.1" id="Layer_1" xmlns="http://www.w3.org/2000/svg" xmlns:xlink="http://www.w3.org/1999/xlink" x="0px" y="0px"
	 width="16px" height="16px" viewBox="0 0 16 16" enable-background="new 0 0 16 16" xml:space="preserve">
<g>
	<path fill="#FFFFFF" d="M4.857,9.598l-2.611,4.111c-0.282,0.434-0.15,1.016,0.282,1.299c0.15,0.094,0.338,0.131,0.507,0.131
		c0.3,0,0.621-0.148,0.789-0.432l2.574-4.041l-0.696-0.318C5.346,10.199,5.045,9.916,4.857,9.598z"/>
	<circle fill="#FFFFFF" cx="11.134" cy="2.495" r="1.634"/>
	<path fill="#FFFFFF" d="M12.937,6.591l-1.145,0.32l-0.566-1.26c-0.167-0.375-0.431-0.696-0.787-0.921L9.086,3.848
		C8.689,3.585,8.22,3.473,7.751,3.51L5.778,3.661C5.571,3.68,5.384,3.772,5.252,3.924L3.918,5.502
		C3.636,5.82,3.673,6.327,4.012,6.591C4.332,6.872,4.84,6.836,5.101,6.497l1.127-1.334l1.185-0.094l-1.71,3.044
		C5.571,8.338,5.553,8.602,5.627,8.846S5.89,9.297,6.116,9.408l2.63,1.242l-1.466,1.99c-0.3,0.414-0.206,0.994,0.208,1.314
		c0.169,0.113,0.356,0.188,0.544,0.188c0.282,0,0.563-0.131,0.752-0.375l2.124-2.914c0.169-0.223,0.226-0.506,0.15-0.785
		c-0.075-0.266-0.264-0.49-0.508-0.621L8.709,8.584l1.259-1.881l0.639,1.428c0.132,0.283,0.414,0.471,0.714,0.471
		c0.076,0,0.132-0.018,0.207-0.038l1.803-0.506c0.412-0.113,0.658-0.546,0.544-0.959C13.782,6.703,13.35,6.461,12.937,6.591z"/>
	<path fill="#FFFFFF" d="M11.77,2.841"/>
</g>
</svg>
