<?xml version="1.0" encoding="utf-8"?>
<!-- Generator: Adobe Illustrator 16.0.0, SVG Export Plug-In . SVG Version: 6.00 Build 0)  -->
<!DOCTYPE svg PUBLIC "-//W3C//DTD SVG 1.1//EN" "http://www.w3.org/Graphics/SVG/1.1/DTD/svg11.dtd">
<svg version="1.1" id="Layer_1" xmlns="http://www.w3.org/2000/svg" xmlns:xlink="http://www.w3.org/1999/xlink" x="0px" y="0px"
	 width="16px" height="16px" viewBox="0 0 16 16" enable-background="new 0 0 16 16" xml:space="preserve">
<g>
	<g>
		<path fill="#FFFFFF" d="M10.674,8.005c-0.322-0.236-0.671-0.444-1.035-0.619c0.834-0.781,1.354-1.89,1.354-3.121
			c0-2.361-1.913-4.274-4.273-4.274c-2.36,0-4.274,1.913-4.274,4.274c0,1.231,0.522,2.34,1.354,3.12
			c-2.253,1.087-3.809,3.395-3.809,6.065c0,0,4.158,0,7.852,0C7.265,11.182,8.488,8.833,10.674,8.005z"/>
		<path fill="#FFFFFF" d="M12.316,8.624c-2.039,0-3.692,1.651-3.692,3.69s1.653,3.693,3.692,3.693s3.692-1.654,3.692-3.693
			S14.355,8.624,12.316,8.624z M14.668,12.852H13.02v1.727h-1.313v-1.727H9.965v-1.313h1.742V9.875h1.313v1.664h1.648V12.852z"/>
	</g>
</g>
</svg>
