<?xml version="1.0" encoding="utf-8"?>
<!-- Generator: Adobe Illustrator 16.0.0, SVG Export Plug-In . SVG Version: 6.00 Build 0)  -->
<!DOCTYPE svg PUBLIC "-//W3C//DTD SVG 1.1//EN" "http://www.w3.org/Graphics/SVG/1.1/DTD/svg11.dtd">
<svg version="1.1" id="Layer_1" xmlns="http://www.w3.org/2000/svg" xmlns:xlink="http://www.w3.org/1999/xlink" x="0px" y="0px"
	 width="16px" height="16px" viewBox="0 0 16 16" enable-background="new 0 0 16 16" xml:space="preserve">
<g>
	<path fill="#FFFFFF" d="M5.441,8.395c1.667-0.35,2.945-1.829,2.945-3.601c0-2.032-1.634-3.679-3.667-3.679
		c-2.031,0-3.672,1.647-3.672,3.679c0,1.811,1.261,3.313,2.985,3.619C1.778,8.753,0,10.693,0,13.043V15h9.499v-1.957
		C9.499,10.648,7.755,8.681,5.441,8.395z"/>
	<polygon fill="#FFFFFF" points="13.19,7.577 13.19,4.534 11.783,4.534 11.783,7.577 8.745,7.577 8.745,8.98 11.783,8.98 
		11.783,12.022 13.19,12.022 13.19,8.98 16,8.98 16,7.577 	"/>
	<rect x="11.578" y="4.534" fill="#FFFFFF" width="1.797" height="7.488"/>
	<rect x="8.745" y="7.417" fill="#FFFFFF" width="7.255" height="1.705"/>
</g>
</svg>
