<?xml version="1.0" encoding="utf-8"?>
<!-- Generator: Adobe Illustrator 16.0.0, SVG Export Plug-In . SVG Version: 6.00 Build 0)  -->
<!DOCTYPE svg PUBLIC "-//W3C//DTD SVG 1.1//EN" "http://www.w3.org/Graphics/SVG/1.1/DTD/svg11.dtd">
<svg version="1.1" id="Layer_1" xmlns="http://www.w3.org/2000/svg" xmlns:xlink="http://www.w3.org/1999/xlink" x="0px" y="0px"
	 width="16px" height="16px" viewBox="0 0 16 16" enable-background="new 0 0 16 16" xml:space="preserve">
<path fill="#FFFFFF" d="M13.407,1.286H2.592c-0.747,0-1.348,0.598-1.348,1.341v8.355c0,0.744,0.601,1.342,1.348,1.342h1.569v2.1
	c0,0.291,0.16,0.539,0.424,0.657c0.104,0.043,0.206,0.07,0.309,0.07c0.161,0,0.337-0.057,0.469-0.172l3.122-2.642h4.923
	c0.749,0,1.349-0.597,1.349-1.34V2.627C14.756,1.884,14.142,1.286,13.407,1.286z M5.187,9.772c0,0.117-0.089,0.205-0.205,0.205h-1.1
	c-0.117,0-0.205-0.088-0.205-0.205V8.096c0-0.117,0.088-0.204,0.205-0.204h1.1c0.116,0,0.205,0.087,0.205,0.204V9.772z M7.561,9.772
	c0,0.117-0.089,0.205-0.204,0.205H6.256c-0.116,0-0.205-0.088-0.205-0.205V6.419c0-0.117,0.089-0.204,0.205-0.204h1.101
	c0.115,0,0.204,0.087,0.204,0.204V9.772z M9.949,9.772c0,0.117-0.089,0.205-0.204,0.205H8.645c-0.116,0-0.205-0.088-0.205-0.205
	V8.096c0-0.117,0.089-0.204,0.205-0.204h1.101c0.115,0,0.204,0.087,0.204,0.204V9.772z M12.323,9.772
	c0,0.117-0.087,0.205-0.205,0.205H11.02c-0.118,0-0.206-0.088-0.206-0.205V6.419c0-0.117,0.088-0.204,0.206-0.204h1.099
	c0.118,0,0.205,0.087,0.205,0.204V9.772z M11.562,5.223c-0.176,0-0.337-0.059-0.484-0.159l-0.028-0.03L9.964,5.807L9.979,5.85
	c0.031,0.088,0.044,0.16,0.044,0.248c0,0.452-0.366,0.816-0.819,0.816c-0.456,0-0.821-0.364-0.821-0.816
	c0-0.072,0.015-0.146,0.044-0.248l0.014-0.043L7.356,5.033l-0.03,0.03c-0.293,0.218-0.688,0.218-0.981,0l-0.03-0.03L5.23,5.807
	L5.245,5.85c0.029,0.088,0.044,0.176,0.044,0.248c0,0.452-0.366,0.816-0.821,0.816c-0.454,0-0.864-0.378-0.864-0.831
	c0-0.452,0.366-0.816,0.821-0.816c0.176,0,0.337,0.059,0.483,0.16l0.029,0.03l1.085-0.774L6.008,4.64
	c-0.03-0.088-0.045-0.175-0.045-0.248c0-0.452,0.367-0.816,0.821-0.816s0.82,0.364,0.82,0.816c0,0.073-0.015,0.146-0.044,0.248
	L7.546,4.683l1.085,0.774l0.029-0.03c0.292-0.218,0.688-0.218,0.98,0l0.029,0.03l1.086-0.774l0.028-0.028
	c-0.028-0.087-0.044-0.175-0.044-0.248c0-0.452,0.367-0.817,0.821-0.817c0.456,0,0.821,0.365,0.821,0.817
	C12.396,4.858,12.018,5.223,11.562,5.223z"/>
</svg>
