<?xml version="1.0" encoding="utf-8"?>
<!-- Generator: Adobe Illustrator 16.0.0, SVG Export Plug-In . SVG Version: 6.00 Build 0)  -->
<!DOCTYPE svg PUBLIC "-//W3C//DTD SVG 1.1//EN" "http://www.w3.org/Graphics/SVG/1.1/DTD/svg11.dtd">
<svg version="1.1" id="Layer_1" xmlns="http://www.w3.org/2000/svg" xmlns:xlink="http://www.w3.org/1999/xlink" x="0px" y="0px"
	 width="16px" height="16px" viewBox="0 0 16 16" enable-background="new 0 0 16 16" xml:space="preserve">
<g>
	<path fill="#FFFFFF" d="M15.41,11.637c0,2.379-1.93,4.311-4.309,4.311s-4.309-1.932-4.309-4.311c0-2.377,1.93-4.304,4.309-4.304
		S15.41,9.26,15.41,11.637z M13.674,10.5l-0.859-0.861l-2.283,2.283l-1.141-1.139l-0.863,0.854l2.004,2.006L13.674,10.5z"/>
	<path fill="#FFFFFF" d="M2.424,0.053H1.371c-0.443,0-0.781,0.355-0.781,0.783v9.242c0,0.43,0.338,0.82,0.781,0.82h4.263
		c0-0.107-0.016-0.146,0-0.217C5.942,9.281,6.13,9.166,6.6,8.619H3.01V8.584c-0.088,0-0.196-0.072-0.196-0.178V7.872
		c0-0.106,0.091-0.176,0.196-0.176h4.247c0.677-0.536,1.731-1.058,2.858-1.254c0.441-0.076,0.852-0.188,1.424-0.116v-5.49
		c0-0.428-0.338-0.783-0.783-0.783H9.635 M2.813,2.496c0-0.107,0.091-0.212,0.196-0.212h6.125c0.104,0,0.195,0.07,0.195,0.212v0.499
		c0,0.143-0.092,0.212-0.195,0.212H3.01c-0.088,0-0.196-0.07-0.196-0.212V2.496z M2.813,5.201c0-0.141,0.091-0.212,0.196-0.212
		h6.125c0.104,0,0.195,0.071,0.195,0.212v0.501c0,0.07-0.092,0.212-0.195,0.212H3.01c-0.088,0-0.196-0.07-0.196-0.212V5.201z"/>
</g>
</svg>
