<?xml version="1.0" encoding="utf-8"?>
<!-- Generator: Adobe Illustrator 24.1.1, SVG Export Plug-In . SVG Version: 6.00 Build 0)  -->
<svg version="1.1" id="Layer_1" xmlns="http://www.w3.org/2000/svg" xmlns:xlink="http://www.w3.org/1999/xlink" x="0px" y="0px"
	 viewBox="0 0 15 15" style="enable-background:new 0 0 15 15;" xml:space="preserve">
<style type="text/css">
	.st0{fill:#FFFFFF;}
</style>
<g>
	<path class="st0" d="M14.99,12.02c-0.03-0.22-0.12-0.42-0.25-0.6c-0.06-0.06-0.1-0.13-0.16-0.19c-0.05-0.06-0.1-0.12-0.13-0.18
		c-0.08-0.17-0.07-0.37,0.02-0.53c0.11-0.17,0.25-0.33,0.33-0.52c0.08-0.2,0.12-0.42,0.1-0.63c-0.02-0.28-0.14-0.54-0.31-0.75
		c-0.22-0.28-0.56-0.45-0.91-0.47c-0.19-0.02-0.38,0.02-0.57,0.05C13,8.2,12.88,8.19,12.78,8.14c-0.14-0.06-0.26-0.17-0.31-0.3
		c-0.08-0.17-0.15-0.34-0.26-0.49c-0.16-0.21-0.39-0.38-0.63-0.46c-0.28-0.09-0.58-0.09-0.86,0c-0.27,0.09-0.52,0.28-0.67,0.52
		C9.93,7.58,9.87,7.79,9.78,7.96C9.7,8.11,9.56,8.23,9.38,8.27c-0.06,0.02-0.14,0.02-0.2,0.01c-0.1,0-0.19-0.01-0.29-0.02
		C8.66,8.25,8.43,8.29,8.22,8.39c-0.24,0.12-0.44,0.3-0.57,0.53C7.51,9.17,7.44,9.48,7.48,9.76C7.51,10,7.61,10.22,7.74,10.4
		c0.06,0.08,0.14,0.17,0.2,0.26c0.07,0.09,0.11,0.21,0.12,0.32c0.01,0.13-0.03,0.26-0.1,0.36c-0.06,0.09-0.12,0.17-0.18,0.27
		c-0.13,0.19-0.21,0.41-0.23,0.64C7.53,12.51,7.59,12.77,7.72,13c0.16,0.29,0.42,0.51,0.73,0.62c0.15,0.06,0.3,0.07,0.46,0.07
		c0.12,0,0.23-0.02,0.35-0.04c0.08-0.01,0.17-0.03,0.25-0.02c0.19,0.02,0.37,0.12,0.46,0.29c0.09,0.17,0.17,0.38,0.29,0.54
		c0.16,0.22,0.39,0.39,0.63,0.47c0.36,0.12,0.77,0.08,1.1-0.11l0.07-0.05c0.21-0.14,0.39-0.34,0.49-0.58
		c0.03-0.07,0.06-0.14,0.08-0.21c0.03-0.07,0.06-0.16,0.11-0.23c0.11-0.16,0.3-0.25,0.5-0.24c0.1,0.01,0.21,0.02,0.32,0.03
		c0.24,0.03,0.49-0.02,0.7-0.13c0.28-0.14,0.51-0.38,0.63-0.66C14.99,12.52,15.02,12.27,14.99,12.02z M13.93,12.74
		c-0.08,0.05-0.18,0.06-0.29,0.06c-0.11-0.01-0.22-0.02-0.33-0.03c-0.26-0.02-0.52,0.05-0.75,0.17c-0.26,0.15-0.46,0.38-0.57,0.64
		c-0.04,0.1-0.08,0.19-0.12,0.29c-0.06,0.14-0.17,0.26-0.3,0.32c-0.16,0.06-0.33,0.06-0.49-0.01c-0.12-0.06-0.21-0.15-0.27-0.26
		c-0.06-0.11-0.1-0.22-0.16-0.32c-0.14-0.28-0.38-0.51-0.65-0.63c-0.23-0.1-0.49-0.14-0.74-0.1c-0.11,0.02-0.21,0.03-0.31,0.05
		c-0.13,0.02-0.26-0.01-0.37-0.07c-0.2-0.12-0.32-0.38-0.28-0.61c0.01-0.08,0.05-0.16,0.09-0.22c0.06-0.09,0.12-0.18,0.18-0.28
		c0.16-0.23,0.23-0.51,0.22-0.78s-0.1-0.54-0.27-0.75c-0.07-0.09-0.15-0.18-0.22-0.28C8.25,9.84,8.2,9.71,8.21,9.58
		C8.22,9.33,8.4,9.11,8.64,9.04C8.76,9.01,8.88,9.02,9,9.03c0.09,0.01,0.19,0.02,0.29,0.02c0.37-0.01,0.74-0.18,0.98-0.46
		c0.1-0.11,0.17-0.23,0.23-0.37c0.04-0.1,0.08-0.19,0.12-0.29c0.05-0.1,0.11-0.18,0.19-0.25c0.19-0.14,0.48-0.15,0.69,0
		c0.08,0.05,0.14,0.12,0.18,0.19c0.07,0.14,0.14,0.29,0.21,0.42c0.16,0.26,0.4,0.46,0.67,0.56c0.13,0.05,0.27,0.07,0.4,0.08
		c0.2,0.01,0.4-0.05,0.61-0.06c0.12-0.01,0.23,0.02,0.33,0.08c0.14,0.08,0.23,0.21,0.27,0.37c0.03,0.14,0.01,0.29-0.07,0.42
		c-0.07,0.11-0.16,0.22-0.23,0.33c-0.13,0.21-0.2,0.46-0.2,0.71c0,0.29,0.09,0.57,0.27,0.8c0.07,0.09,0.15,0.18,0.22,0.28
		c0.07,0.11,0.12,0.24,0.11,0.37C14.25,12.45,14.12,12.65,13.93,12.74z"/>
	<path class="st0" d="M12.06,9.83c-0.22-0.17-0.51-0.28-0.79-0.28c-0.3,0-0.61,0.1-0.85,0.29c-0.15,0.11-0.28,0.26-0.36,0.41
		c-0.14,0.25-0.19,0.54-0.16,0.82c0.04,0.3,0.17,0.59,0.4,0.8c0.2,0.19,0.46,0.32,0.73,0.37c0.29,0.05,0.6-0.01,0.86-0.15
		c0.26-0.14,0.47-0.36,0.59-0.63c0.12-0.25,0.16-0.54,0.1-0.82C12.51,10.33,12.33,10.04,12.06,9.83z M11.68,11.44
		c-0.12,0.09-0.27,0.15-0.41,0.15c-0.17,0.01-0.33-0.06-0.46-0.16c-0.13-0.1-0.21-0.26-0.24-0.42c-0.04-0.24,0.06-0.49,0.25-0.63
		c0.11-0.09,0.26-0.14,0.4-0.14c0.17-0.01,0.33,0.05,0.46,0.15c0.13,0.1,0.22,0.25,0.25,0.41C11.97,11.04,11.88,11.3,11.68,11.44z"
		/>
	<path class="st0" d="M4.15,7.02h5.08c0.17,0,0.31-0.14,0.31-0.31v-1.9c0-0.17-0.14-0.31-0.31-0.31H4.15
		c-0.17,0-0.31,0.14-0.31,0.31v1.9C3.84,6.88,3.98,7.02,4.15,7.02z M4.46,5.12h4.5v0.35h-4.5V5.12z M4.46,6.09h4.5v0.35h-4.5V6.09z"
		/>
	<path class="st0" d="M5.35,3.68c0.17,0,0.31-0.14,0.31-0.31V1.94c0-0.17-0.14-0.31-0.31-0.31H3.91c-0.17,0-0.31,0.14-0.31,0.31
		v1.43c0,0.17,0.14,0.31,0.31,0.31H5.35z M4.22,2.25h0.85v0.81H4.22V2.25z"/>
	<path class="st0" d="M9.77,3.37V1.94c0-0.17-0.14-0.31-0.31-0.31H8.02c-0.17,0-0.31,0.14-0.31,0.31v1.43
		c0,0.17,0.14,0.31,0.31,0.31h1.43C9.63,3.68,9.77,3.54,9.77,3.37z M9.19,3.06H8.33V2.25h0.85V3.06z"/>
	<path class="st0" d="M8.33,14.38H3.76v-2.17h2.85c0.07-0.31,0.21-0.46,0.31-0.62H3.47c-0.17,0-0.33,0.13-0.33,0.31v2.49H0.62v-1.92
		c0-1.42,1.17-2.58,2.58-2.58h3.57C6.7,9.69,6.67,9.47,6.69,9.26H4.65V8.33h2.48c0.25-0.29,0.11-0.38,0.72-0.62H1.9V0.62h9.61v5.53
		c0.21,0.05,0.42,0.15,0.62,0.31v-1.4c0.66-0.15,1.1-0.72,1.1-1.4c0-0.68-0.44-1.24-1.1-1.4V0.3c0-0.08-0.03-0.16-0.09-0.21
		C11.99,0.03,11.91,0,11.83,0L1.58,0C1.5,0,1.42,0.03,1.36,0.09C1.31,0.14,1.28,0.22,1.28,0.3v1.98c-0.66,0.15-1.1,0.72-1.1,1.4
		c0,0.68,0.44,1.24,1.1,1.4v2.97c0,0.08,0.03,0.16,0.08,0.21C1.42,8.3,1.5,8.34,1.58,8.33h2.45v0.93H3.2c-1.76,0-3.2,1.44-3.2,3.2
		v2.24C0,14.87,0.15,15,0.32,15h8.58C8.91,15,9.17,14.7,8.33,14.38z M12.13,2.93c0.31,0.13,0.48,0.41,0.48,0.74
		s-0.17,0.61-0.48,0.74V2.93z M1.28,4.41C0.97,4.28,0.8,4,0.8,3.67s0.17-0.61,0.48-0.74V4.41z"/>
</g>
</svg>
