<?xml version="1.0" encoding="utf-8"?>
<!-- Generator: Adobe Illustrator 24.1.1, SVG Export Plug-In . SVG Version: 6.00 Build 0)  -->
<svg version="1.1" id="Layer_1" xmlns="http://www.w3.org/2000/svg" xmlns:xlink="http://www.w3.org/1999/xlink" x="0px" y="0px"
	 viewBox="0 0 15 15" style="enable-background:new 0 0 15 15;" xml:space="preserve">
<style type="text/css">
	.st0{fill:#FFFFFF;}
</style>
<g>
	<path class="st0" d="M3.51,5.29H2.13c-0.23,0-0.41,0.19-0.41,0.41S1.9,6.12,2.13,6.12h1.38c0.23,0,0.41-0.19,0.41-0.41
		S3.74,5.29,3.51,5.29z"/>
	<path class="st0" d="M9.61,5.29H5.47c-0.23,0-0.41,0.19-0.41,0.41s0.19,0.41,0.41,0.41h4.14c0.23,0,0.41-0.19,0.41-0.41
		S9.83,5.29,9.61,5.29z"/>
	<path class="st0" d="M3.51,7.5H2.13c-0.23,0-0.41,0.19-0.41,0.41c0,0.23,0.19,0.41,0.41,0.41h1.38c0.23,0,0.41-0.19,0.41-0.41
		C3.93,7.69,3.74,7.5,3.51,7.5z"/>
	<path class="st0" d="M14.09,8.71V7.08c0-0.07-0.02-0.13-0.07-0.18c-0.05-0.05-0.11-0.07-0.18-0.07l-8.47,0
		c-0.07,0-0.13,0.02-0.18,0.07C5.15,6.95,5.13,7.02,5.13,7.08v1.63C4.58,8.84,4.22,9.31,4.22,9.87c0,0.56,0.36,1.03,0.91,1.15v2.45
		c0,0.07,0.02,0.13,0.07,0.18c0.05,0.05,0.11,0.07,0.18,0.07H7.4v0.77h0V15h4.42v-0.51v-0.77h2.03c0.07,0,0.13-0.02,0.18-0.07
		c0.05-0.05,0.07-0.11,0.07-0.18v-2.45C14.64,10.89,15,10.43,15,9.87C15,9.31,14.64,8.84,14.09,8.71z M5.13,10.48
		c-0.26-0.11-0.4-0.34-0.4-0.61s0.14-0.51,0.4-0.61V10.48z M11.31,14.53H7.97v-0.81h3.34V14.53z M13.39,13.01H5.83V7.5l7.56-0.06
		V13.01z M14.09,10.48V9.25c0.26,0.11,0.4,0.34,0.4,0.61S14.35,10.37,14.09,10.48z"/>
	<path class="st0" d="M11.69,10.55H7.5c-0.14,0-0.26,0.11-0.26,0.26v1.57c0,0.14,0.11,0.26,0.26,0.26h4.19
		c0.14,0,0.26-0.11,0.26-0.26v-1.57C11.95,10.66,11.83,10.55,11.69,10.55z M11.47,12.15H7.75v-0.29h3.71V12.15z M11.47,11.35H7.75
		v-0.29h3.71V11.35z"/>
	<path class="st0" d="M7.3,9.88h1.18c0.14,0,0.26-0.11,0.26-0.26V8.44c0-0.14-0.11-0.26-0.26-0.26H7.3c-0.14,0-0.26,0.11-0.26,0.26
		v1.18C7.05,9.76,7.16,9.88,7.3,9.88z M7.56,8.69h0.7v0.67h-0.7V8.69z"/>
	<path class="st0" d="M10.7,9.88h1.18c0.14,0,0.26-0.11,0.26-0.26V8.44c0-0.14-0.11-0.26-0.26-0.26H10.7
		c-0.14,0-0.26,0.11-0.26,0.26v1.18C10.44,9.76,10.56,9.88,10.7,9.88z M10.95,8.69h0.7v0.67h-0.7V8.69z"/>
	<path class="st0" d="M3.51,3.42H2.13c-0.23,0-0.41,0.19-0.41,0.41S1.9,4.25,2.13,4.25h1.38c0.23,0,0.41-0.19,0.41-0.41
		S3.74,3.42,3.51,3.42z"/>
	<path class="st0" d="M9.61,3.42H5.47c-0.23,0-0.41,0.19-0.41,0.41s0.19,0.41,0.41,0.41h4.14c0.23,0,0.41-0.19,0.41-0.41
		S9.83,3.42,9.61,3.42z"/>
	<path class="st0" d="M0.83,10.63V2.76h10.53v3.33h0.83V1.52c0-0.84-0.68-1.52-1.52-1.52H1.52C0.68,0,0,0.68,0,1.52v9.11
		c0,0.84,0.68,1.52,1.52,1.52h2.7v-0.83h-2.7C1.14,11.32,0.83,11.01,0.83,10.63z M1.52,0.83h9.15c0.38,0,0.69,0.31,0.69,0.69v0.41
		H0.83V1.52C0.83,1.14,1.14,0.83,1.52,0.83z"/>
</g>
</svg>
