<?xml version="1.0" encoding="utf-8"?>
<!-- Generator: Adobe Illustrator 16.0.0, SVG Export Plug-In . SVG Version: 6.00 Build 0)  -->
<!DOCTYPE svg PUBLIC "-//W3C//DTD SVG 1.1//EN" "http://www.w3.org/Graphics/SVG/1.1/DTD/svg11.dtd">
<svg version="1.1" id="Layer_8" xmlns="http://www.w3.org/2000/svg" xmlns:xlink="http://www.w3.org/1999/xlink" x="0px" y="0px"
	 width="16px" height="16px" viewBox="0 0 16 16" enable-background="new 0 0 16 16" xml:space="preserve">
<path d="M7.758,9.451"/>
<path fill="#FFFFFF" d="M2.293,8.062v6.341c0,0.137,0.117,0.254,0.251,0.254h1.342c0.135,0,0.252-0.117,0.252-0.254v-4.159h0.789
	v5.469c0,0.135,0.118,0.253,0.251,0.253h5.688c0.134,0,0.252-0.118,0.252-0.253v-5.469h0.788v4.179c0,0.132,0.117,0.251,0.253,0.251
	h1.341c0.134,0,0.251-0.119,0.251-0.251v-6.36c-0.016-0.15-0.117-0.25-0.268-0.25H12.14c-0.133,0-0.251,0.116-0.251,0.25v0.421
	h-0.788V8.062c0-0.134-0.118-0.25-0.251-0.25H8.92V7.089h1.93c0.133,0,0.251-0.117,0.251-0.252V5.513h0.571
	c0.132,0,0.251-0.119,0.251-0.253V3.432c0-0.134-0.119-0.252-0.251-0.252h-0.571V1.854c0-0.134-0.118-0.251-0.251-0.251H8.45V0.462
	c0-0.235-0.186-0.437-0.437-0.437c-0.235,0-0.436,0.202-0.436,0.437v1.141h-2.4c-0.134,0-0.251,0.117-0.251,0.251V3.18H4.355
	c-0.134,0-0.251,0.118-0.251,0.252V5.26c0,0.134,0.117,0.253,0.251,0.253h0.571v1.324c0,0.135,0.118,0.252,0.251,0.252h1.995v0.723
	H5.178c-0.134,0-0.251,0.116-0.251,0.25v0.421H4.138V8.062c0-0.134-0.117-0.25-0.252-0.25 M9.305,2.776
	c0.369,0,0.688,0.303,0.688,0.688c0,0.386-0.302,0.688-0.688,0.688c-0.368,0-0.688-0.302-0.688-0.688
	C8.617,3.097,8.937,2.776,9.305,2.776z M6.035,3.464c0-0.368,0.301-0.688,0.687-0.688c0.369,0,0.688,0.303,0.688,0.688
	c0,0.386-0.302,0.688-0.688,0.688C6.336,4.153,6.035,3.851,6.035,3.464z M6.907,6.016c-0.134,0-0.253-0.118-0.253-0.252V5.495
	c0-0.134,0.119-0.252,0.253-0.252h2.197c0.135,0,0.252,0.118,0.252,0.252v0.269c0,0.134-0.117,0.252-0.252,0.252H6.907z"/>
</svg>
