<?xml version="1.0" encoding="utf-8"?>
<!-- Generator: Adobe Illustrator 16.0.0, SVG Export Plug-In . SVG Version: 6.00 Build 0)  -->
<!DOCTYPE svg PUBLIC "-//W3C//DTD SVG 1.1//EN" "http://www.w3.org/Graphics/SVG/1.1/DTD/svg11.dtd">
<svg version="1.1" id="Layer_3" xmlns="http://www.w3.org/2000/svg" xmlns:xlink="http://www.w3.org/1999/xlink" x="0px" y="0px"
	 width="16px" height="16px" viewBox="0 0 16 16" enable-background="new 0 0 16 16" xml:space="preserve">
<g>
	<path fill="#FFFFFF" d="M3.668,13.763h4.05v-1.551h0.755v1.551h3.858V2.992h-1.503V2.237H5.313v0.755H3.693 M7.39,11.359H5.484
		v-1.002H7.39V11.359z M7.39,9.35H5.484V8.34H7.39V9.35z M7.39,7.377H5.484v-1H7.39V7.377z M7.39,5.367H5.484V4.366H7.39V5.367z
		 M10.516,11.359H8.61v-1.002h1.905V11.359z M10.498,9.291H8.629v-0.99h1.869V9.291z M10.498,7.358H8.629V6.377h1.869V7.358z
		 M10.516,5.367H8.61V4.366h1.905V5.367z"/>
	<rect x="12.844" y="5.867" fill="#FFFFFF" width="3.156" height="7.896"/>
	<rect y="6.367" fill="#FFFFFF" width="3.094" height="7.396"/>
</g>
</svg>
