<?xml version="1.0" encoding="utf-8"?>
<!-- Generator: Adobe Illustrator 24.1.1, SVG Export Plug-In . SVG Version: 6.00 Build 0)  -->
<svg version="1.1" id="Layer_1" xmlns="http://www.w3.org/2000/svg" xmlns:xlink="http://www.w3.org/1999/xlink" x="0px" y="0px"
	 viewBox="0 0 15 15" style="enable-background:new 0 0 15 15;" xml:space="preserve">
<style type="text/css">
	.st0{fill:#FFFFFF;}
</style>
<g>
	<path class="st0" d="M14.99,12.02c-0.03-0.22-0.12-0.42-0.25-0.6c-0.06-0.06-0.1-0.13-0.16-0.19c-0.05-0.06-0.1-0.12-0.13-0.18
		c-0.08-0.17-0.07-0.37,0.02-0.53c0.11-0.17,0.25-0.33,0.33-0.52c0.08-0.2,0.12-0.42,0.1-0.63c-0.02-0.28-0.14-0.54-0.31-0.75
		c-0.22-0.28-0.56-0.45-0.91-0.47c-0.19-0.02-0.38,0.02-0.57,0.05C13,8.2,12.88,8.19,12.78,8.14c-0.14-0.06-0.26-0.17-0.31-0.3
		c-0.08-0.17-0.15-0.34-0.26-0.49c-0.16-0.21-0.39-0.38-0.63-0.46c-0.28-0.09-0.58-0.09-0.86,0c-0.27,0.09-0.52,0.28-0.67,0.52
		C9.93,7.58,9.87,7.79,9.78,7.96C9.7,8.11,9.56,8.23,9.38,8.27c-0.06,0.02-0.14,0.02-0.2,0.01c-0.1,0-0.19-0.01-0.29-0.02
		C8.66,8.25,8.43,8.29,8.22,8.39c-0.24,0.12-0.44,0.3-0.57,0.53C7.51,9.17,7.44,9.48,7.48,9.76C7.51,10,7.61,10.22,7.74,10.4
		c0.06,0.08,0.14,0.17,0.2,0.26c0.07,0.09,0.11,0.21,0.12,0.32c0.01,0.13-0.03,0.26-0.1,0.36c-0.06,0.09-0.12,0.17-0.18,0.27
		c-0.13,0.19-0.21,0.41-0.23,0.64C7.53,12.51,7.59,12.77,7.72,13c0.16,0.29,0.42,0.51,0.73,0.62c0.15,0.06,0.3,0.07,0.46,0.07
		c0.12,0,0.23-0.02,0.35-0.04c0.08-0.01,0.17-0.03,0.25-0.02c0.19,0.02,0.37,0.12,0.46,0.29c0.09,0.17,0.17,0.38,0.29,0.54
		c0.16,0.22,0.39,0.39,0.63,0.47c0.36,0.12,0.77,0.08,1.1-0.11l0.07-0.05c0.21-0.14,0.39-0.34,0.49-0.58
		c0.03-0.07,0.06-0.14,0.08-0.21c0.03-0.07,0.06-0.16,0.11-0.23c0.11-0.16,0.3-0.25,0.5-0.24c0.1,0.01,0.21,0.02,0.32,0.03
		c0.24,0.03,0.49-0.02,0.7-0.13c0.28-0.14,0.51-0.38,0.63-0.66C14.99,12.52,15.02,12.27,14.99,12.02z M13.93,12.74
		c-0.08,0.05-0.18,0.06-0.29,0.06c-0.11-0.01-0.22-0.02-0.33-0.03c-0.26-0.02-0.52,0.05-0.75,0.17c-0.26,0.15-0.46,0.38-0.57,0.64
		c-0.04,0.1-0.08,0.19-0.12,0.29c-0.06,0.14-0.17,0.26-0.3,0.32c-0.16,0.06-0.33,0.06-0.49-0.01c-0.12-0.06-0.21-0.15-0.27-0.26
		c-0.06-0.11-0.1-0.22-0.16-0.32c-0.14-0.28-0.38-0.51-0.65-0.63c-0.23-0.1-0.49-0.14-0.74-0.1c-0.11,0.02-0.21,0.03-0.31,0.05
		c-0.13,0.02-0.26-0.01-0.37-0.07c-0.2-0.12-0.32-0.38-0.28-0.61c0.01-0.08,0.05-0.16,0.09-0.22c0.06-0.09,0.12-0.18,0.18-0.28
		c0.16-0.23,0.23-0.51,0.22-0.78s-0.1-0.54-0.27-0.75c-0.07-0.09-0.15-0.18-0.22-0.28C8.25,9.84,8.2,9.71,8.21,9.58
		C8.22,9.33,8.4,9.11,8.64,9.04C8.76,9.01,8.88,9.02,9,9.03c0.09,0.01,0.19,0.02,0.29,0.02c0.37-0.01,0.74-0.18,0.98-0.46
		c0.1-0.11,0.17-0.23,0.23-0.37c0.04-0.1,0.08-0.19,0.12-0.29c0.05-0.1,0.11-0.18,0.19-0.25c0.19-0.14,0.48-0.15,0.69,0
		c0.08,0.05,0.14,0.12,0.18,0.19c0.07,0.14,0.14,0.29,0.21,0.42c0.16,0.26,0.4,0.46,0.67,0.56c0.13,0.05,0.27,0.07,0.4,0.08
		c0.2,0.01,0.4-0.05,0.61-0.06c0.12-0.01,0.23,0.02,0.33,0.08c0.14,0.08,0.23,0.21,0.27,0.37c0.03,0.14,0.01,0.29-0.07,0.42
		c-0.07,0.11-0.16,0.22-0.23,0.33c-0.13,0.21-0.2,0.46-0.2,0.71c0,0.29,0.09,0.57,0.27,0.8c0.07,0.09,0.15,0.18,0.22,0.28
		c0.07,0.11,0.12,0.24,0.11,0.37C14.25,12.45,14.12,12.65,13.93,12.74z"/>
	<path class="st0" d="M12.06,9.83c-0.22-0.17-0.51-0.28-0.79-0.28c-0.3,0-0.61,0.1-0.85,0.29c-0.15,0.11-0.28,0.26-0.36,0.41
		c-0.14,0.25-0.19,0.54-0.16,0.82c0.04,0.3,0.17,0.59,0.4,0.8c0.2,0.19,0.46,0.32,0.73,0.37c0.29,0.05,0.6-0.01,0.86-0.15
		c0.26-0.14,0.47-0.36,0.59-0.63c0.12-0.25,0.16-0.54,0.1-0.82C12.51,10.33,12.33,10.04,12.06,9.83z M11.68,11.44
		c-0.12,0.09-0.27,0.15-0.41,0.15c-0.17,0.01-0.33-0.06-0.46-0.16c-0.13-0.1-0.21-0.26-0.24-0.42c-0.04-0.24,0.06-0.49,0.25-0.63
		c0.11-0.09,0.26-0.14,0.4-0.14c0.17-0.01,0.33,0.05,0.46,0.15c0.13,0.1,0.22,0.25,0.25,0.41C11.97,11.04,11.88,11.3,11.68,11.44z"
		/>
	<path class="st0" d="M0.83,10.63V2.76h10.53v3.3c0.26,0.01,0.53,0.06,0.83,0.14V1.52c0-0.84-0.68-1.52-1.52-1.52H1.52
		C0.68,0,0,0.68,0,1.52v9.11c0,0.84,0.68,1.52,1.52,1.52h5.1c0.05-0.27,0.16-0.59,0.36-0.83H1.52C1.14,11.32,0.83,11.01,0.83,10.63z
		 M0.83,1.52c0-0.38,0.31-0.69,0.69-0.69h9.15c0.38,0,0.69,0.31,0.69,0.69v0.41H0.83V1.52z"/>
	<path class="st0" d="M3.51,5.29H2.13c-0.23,0-0.41,0.19-0.41,0.41c0,0.23,0.19,0.41,0.41,0.41h1.38c0.23,0,0.41-0.19,0.41-0.41
		C3.93,5.48,3.74,5.29,3.51,5.29z"/>
	<path class="st0" d="M10.02,5.71c0-0.23-0.19-0.41-0.41-0.41H5.47c-0.23,0-0.41,0.19-0.41,0.41c0,0.23,0.19,0.41,0.41,0.41h4.14
		C9.83,6.12,10.02,5.93,10.02,5.71z"/>
	<path class="st0" d="M3.51,3.42H2.13c-0.23,0-0.41,0.19-0.41,0.41S1.9,4.25,2.13,4.25h1.38c0.23,0,0.41-0.19,0.41-0.41
		S3.74,3.42,3.51,3.42z"/>
	<path class="st0" d="M9.61,3.42H5.47c-0.23,0-0.41,0.19-0.41,0.41s0.19,0.41,0.41,0.41h4.14c0.23,0,0.41-0.19,0.41-0.41
		S9.83,3.42,9.61,3.42z"/>
	<path class="st0" d="M3.51,7.17H2.13c-0.23,0-0.41,0.19-0.41,0.41S1.9,8,2.13,8h1.38c0.23,0,0.41-0.19,0.41-0.41
		S3.74,7.17,3.51,7.17z"/>
	<path class="st0" d="M3.51,9.04H2.13c-0.23,0-0.41,0.19-0.41,0.41S1.9,9.87,2.13,9.87h1.38c0.23,0,0.41-0.19,0.41-0.41
		S3.74,9.04,3.51,9.04z"/>
	<path class="st0" d="M5.47,9.04c-0.23,0-0.41,0.19-0.41,0.41s0.19,0.41,0.41,0.41h1.19C6.54,9.63,6.5,9.33,6.82,9.04H5.47z"/>
	<path class="st0" d="M8.44,7.5c0.3,0,0.41-0.19,0.45-0.33H5.47c-0.23,0-0.41,0.19-0.41,0.41S5.24,8,5.47,8h2.06
		C7.83,7.75,8.19,7.5,8.44,7.5z"/>
</g>
</svg>
