<?xml version="1.0" encoding="utf-8"?>
<!-- Generator: Adobe Illustrator 16.0.0, SVG Export Plug-In . SVG Version: 6.00 Build 0)  -->
<!DOCTYPE svg PUBLIC "-//W3C//DTD SVG 1.1//EN" "http://www.w3.org/Graphics/SVG/1.1/DTD/svg11.dtd">
<svg version="1.1" id="Layer_8" xmlns="http://www.w3.org/2000/svg" xmlns:xlink="http://www.w3.org/1999/xlink" x="0px" y="0px"
	 width="16px" height="16px" viewBox="0 0 16 16" enable-background="new 0 0 16 16" xml:space="preserve">
<path d="M7.758,9.451"/>
<g>
	<path fill="#FFFFFF" d="M9.807,9.709H9.768V9.112c0-0.189-0.164-0.354-0.35-0.354H6.725V7.736h2.693c0.186,0,0.35-0.166,0.35-0.358
		V5.505h0.799c0.184,0,0.348-0.167,0.348-0.358V2.56c0-0.189-0.164-0.356-0.348-0.356H9.768V0.328c0-0.145-0.096-0.274-0.223-0.328
		H1.371C1.243,0.054,1.147,0.183,1.147,0.328v1.875H0.35C0.163,2.203,0,2.37,0,2.56v2.587c0,0.191,0.163,0.358,0.35,0.358h0.797
		v1.873c0,0.192,0.165,0.358,0.351,0.358h2.786v1.022H1.498c-0.187,0-0.351,0.164-0.351,0.354v0.597H0.054v2.492h1.093V16h0.962
		h1.745h2.609h0.083l0.35-2.709l0.205-0.54L9.807,9.709z M7.261,1.633c0.517,0,0.96,0.428,0.96,0.974s-0.42,0.974-0.96,0.974
		c-0.514,0-0.96-0.428-0.96-0.974C6.301,2.086,6.747,1.633,7.261,1.633z M2.695,2.607c0-0.521,0.421-0.974,0.96-0.974
		c0.516,0,0.96,0.428,0.96,0.974s-0.422,0.974-0.96,0.974C3.116,3.581,2.695,3.153,2.695,2.607z M3.913,6.217
		c-0.188,0-0.354-0.167-0.354-0.356V5.48c0-0.19,0.166-0.357,0.354-0.357h3.065c0.19,0,0.354,0.167,0.354,0.357v0.38
		c0,0.189-0.164,0.356-0.354,0.356H3.913z"/>
	<path fill="#FFFFFF" d="M15.762,8.797L14.56,7.555c-0.317-0.327-0.823-0.327-1.132,0l-0.803,0.831c-0.03,0.031-0.03,0.082,0,0.113
		l2.232,2.308c0.03,0.03,0.08,0.03,0.109,0l0.804-0.831C16.078,9.648,16.078,9.124,15.762,8.797z"/>
	<path fill="#FFFFFF" d="M12.109,8.92l-4.049,4.173c-0.04,0.043-0.07,0.094-0.07,0.145l-0.396,2.441
		c-0.031,0.185,0.128,0.349,0.307,0.317l2.362-0.41c0.06-0.011,0.109-0.041,0.138-0.071l4.039-4.174c0.03-0.031,0.03-0.084,0-0.113
		L12.219,8.92C12.188,8.888,12.139,8.888,12.109,8.92z"/>
</g>
</svg>
