<?xml version="1.0" encoding="UTF-8"?>
<!DOCTYPE svg PUBLIC "-//W3C//DTD SVG 1.1//EN" "http://www.w3.org/Graphics/SVG/1.1/DTD/svg11.dtd">
<!-- Creator: CorelDRAW 2019 (64-Bit) -->
<svg xmlns="http://www.w3.org/2000/svg" xml:space="preserve" width="0.106661in" height="0.106661in" version="1.1" style="shape-rendering:geometricPrecision; text-rendering:geometricPrecision; image-rendering:optimizeQuality; fill-rule:evenodd; clip-rule:evenodd"
viewBox="0 0 106.66 106.66"
 xmlns:xlink="http://www.w3.org/1999/xlink"
 xmlns:xodm="http://www.corel.com/coreldraw/odm/2003">
 <defs>
  <style type="text/css">
   <![CDATA[
    .fil0 {fill:#3C8DBC;fill-rule:nonzero}
   ]]>
  </style>
 </defs>
 <g id="Layer_x0020_1">
  <metadata id="CorelCorpID_0Corel-Layer"/>
  <g id="_958708128" data-name="Group">
   <path class="fil0" d="M81.86 30.03l-17.36 0 0 -8.68 -22.34 0 0 8.68 -17.35 0 0 4.82 4.26 0 0 39.38c0.02,6.11 4.98,11.07 11.1,11.07l26.5 0.01c0,-0.01 0,-0.01 0,-0.01 6.08,0 11.01,-4.93 11.01,-11.01 0,-0.02 0,-0.05 0,-0.08l0 -39.36 4.19 0 0 -4.82 -0.01 0zm-34.88 -3.86l12.7 0 0 3.86 -12.7 0 0 -3.86zm25.88 48.06c-0.01,-0.01 -0.01,-0.01 -0.01,-0.01 0,3.43 -2.76,6.23 -6.19,6.27l-26.51 0.01c-3.45,-0.01 -6.26,-2.81 -6.26,-6.28l-0.01 -39.37 38.97 0 0 39.38 0.01 -0z" data-name="Compound Path"/>
   <rect class="fil0" x="39.91" y="43.12" width="4.82" height="27.32" data-name="Path"/>
   <rect class="fil0" x="50.92" y="43.12" width="4.82" height="27.32" data-name="Path"/>
   <rect class="fil0" x="61.93" y="43.12" width="4.82" height="27.32" data-name="Path"/>
  </g>
 </g>
</svg>
