<?xml version="1.0" encoding="utf-8"?>
<!-- Generator: Adobe Illustrator 16.0.0, SVG Export Plug-In . SVG Version: 6.00 Build 0)  -->
<!DOCTYPE svg PUBLIC "-//W3C//DTD SVG 1.1//EN" "http://www.w3.org/Graphics/SVG/1.1/DTD/svg11.dtd">
<svg version="1.1" id="Layer_4" xmlns="http://www.w3.org/2000/svg" xmlns:xlink="http://www.w3.org/1999/xlink" x="0px" y="0px"
	 width="16px" height="16px" viewBox="0 0 16 16" enable-background="new 0 0 16 16" xml:space="preserve">
<g>
	<path fill="#FFFFFF" d="M2.184,7.701c0.921,0,1.67-0.749,1.67-1.67c0-0.92-0.749-1.669-1.67-1.669c-0.92,0-1.67,0.749-1.67,1.669
		C0.514,6.952,1.263,7.701,2.184,7.701z"/>
	<path fill="#FFFFFF" d="M4.368,10.889V9.697c0-1.206-0.978-2.184-2.184-2.184C0.978,7.514,0,8.492,0,9.697v1.191"/>
</g>
<path fill="#FFFFFF" d="M13.815,7.701c0.921,0,1.67-0.749,1.67-1.67c0-0.92-0.749-1.669-1.67-1.669s-1.67,0.749-1.67,1.669
	C12.146,6.952,12.895,7.701,13.815,7.701z"/>
<path fill="#FFFFFF" d="M16,10.871V9.68c0-1.205-0.979-2.184-2.185-2.184s-2.184,0.979-2.184,2.184v1.191"/>
<path fill="#FFFFFF" d="M7.999,12.625c0.921,0,1.67-0.749,1.67-1.67c0-0.92-0.749-1.67-1.67-1.67s-1.67,0.75-1.67,1.67
	C6.329,11.876,7.078,12.625,7.999,12.625z"/>
<path fill="#FFFFFF" d="M10.184,16v-1.191c0-1.205-0.979-2.184-2.185-2.184s-2.184,0.979-2.184,2.184V16"/>
<path fill="#FFFFFF" d="M8,3.34c0.92,0,1.67-0.749,1.67-1.67C9.67,0.75,8.92,0,8,0C7.079,0,6.33,0.75,6.33,1.67
	C6.33,2.591,7.079,3.34,8,3.34z"/>
<path fill="#FFFFFF" d="M10.184,6.715V5.523C10.184,4.318,9.205,3.34,8,3.34c-1.206,0-2.184,0.979-2.184,2.184v1.191"/>
<rect x="1.458" y="0.917" fill="#FFFFFF" width="13.083" height="1.5"/>
<rect x="1.458" y="13.563" fill="#FFFFFF" width="13.083" height="1.5"/>
<rect x="13.042" y="1.67" fill="#FFFFFF" width="1.5" height="13.084"/>
<rect x="1.458" y="1.229" fill="#FFFFFF" width="1.5" height="13.084"/>
</svg>
