<?xml version="1.0" encoding="utf-8"?>
<!-- Generator: Adobe Illustrator 16.0.0, SVG Export Plug-In . SVG Version: 6.00 Build 0)  -->
<!DOCTYPE svg PUBLIC "-//W3C//DTD SVG 1.1//EN" "http://www.w3.org/Graphics/SVG/1.1/DTD/svg11.dtd">
<svg version="1.1" id="Layer_1" xmlns="http://www.w3.org/2000/svg" xmlns:xlink="http://www.w3.org/1999/xlink" x="0px" y="0px"
	 width="16px" height="16px" viewBox="0 0 16 16" enable-background="new 0 0 16 16" xml:space="preserve">
<g>
	<path fill="#FFFFFF" d="M14.823,1.285H1.193c-0.656,0-1.178,0.538-1.178,1.178v11.073c0,0.655,0.539,1.179,1.178,1.179h13.615
		c0.655,0,1.178-0.539,1.178-1.179V2.463C16.002,1.807,15.463,1.285,14.823,1.285z M5.063,2.496c0.286,0,0.505,0.235,0.505,0.506
		c0,0.285-0.236,0.504-0.505,0.504c-0.286,0-0.504-0.235-0.504-0.504C4.559,2.715,4.777,2.496,5.063,2.496z M3.515,2.496
		c0.286,0,0.505,0.235,0.505,0.506c0,0.285-0.236,0.504-0.505,0.504c-0.286,0-0.505-0.235-0.505-0.504
		C3.01,2.715,3.246,2.496,3.515,2.496z M1.967,2.496c0.286,0,0.505,0.235,0.505,0.506c0,0.285-0.236,0.504-0.505,0.504
		S1.462,3.271,1.462,3.002C1.462,2.715,1.698,2.496,1.967,2.496z M14.521,13.148c0,0.052-0.033,0.085-0.084,0.085H1.58
		c-0.05,0-0.084-0.033-0.084-0.085v-8.38h13.009v8.38H14.521z"/>
	<path fill="#FFFFFF" d="M8.008,12.732c2.067,0,3.739-1.676,3.739-3.74c0-2.067-1.672-3.739-3.739-3.739
		c-2.066,0-3.74,1.672-3.74,3.739C4.269,11.057,5.942,12.732,8.008,12.732z M5.47,10.507h1.102c0.079,0.473,0.196,0.904,0.354,1.26
		C6.296,11.511,5.804,11.057,5.47,10.507z M5.037,8.992c0-0.256,0.04-0.492,0.099-0.729h1.318c-0.02,0.236-0.02,0.492-0.02,0.729
		c0,0.235,0.02,0.491,0.02,0.728H5.136C5.076,9.504,5.037,9.249,5.037,8.992z M8.008,6.04c0.158,0,0.492,0.511,0.67,1.457H7.34
		C7.517,6.551,7.851,6.04,8.008,6.04z M8.795,8.264C8.816,8.5,8.834,8.736,8.834,8.992c0,0.257-0.018,0.512-0.039,0.728H7.221
		C7.202,9.483,7.182,9.249,7.182,8.992c0-0.256,0.02-0.513,0.039-0.729H8.795z M10.979,8.992c0,0.257-0.039,0.491-0.097,0.728H9.564
		c0.018-0.236,0.018-0.492,0.018-0.728c0-0.236-0.018-0.492-0.039-0.729h1.317C10.94,8.5,10.979,8.736,10.979,8.992z M8.008,11.964
		c-0.158,0-0.492-0.511-0.668-1.477h1.338C8.5,11.453,8.166,11.964,8.008,11.964z M9.091,11.748
		c0.157-0.354,0.275-0.787,0.354-1.261h1.103C10.213,11.057,9.72,11.511,9.091,11.748z M10.548,7.497H9.445
		c-0.079-0.474-0.197-0.906-0.354-1.26C9.72,6.493,10.213,6.925,10.548,7.497z M6.926,6.237C6.768,6.591,6.65,7.023,6.572,7.497
		H5.47C5.804,6.925,6.296,6.493,6.926,6.237z"/>
</g>
</svg>
