<?xml version="1.0" encoding="UTF-8"?>
<!DOCTYPE svg PUBLIC "-//W3C//DTD SVG 1.1//EN" "http://www.w3.org/Graphics/SVG/1.1/DTD/svg11.dtd">
<!-- Creator: CorelDRAW 2019 (64-Bit) -->
<svg xmlns="http://www.w3.org/2000/svg" xml:space="preserve" width="0.106661in" height="0.106661in" version="1.1" style="shape-rendering:geometricPrecision; text-rendering:geometricPrecision; image-rendering:optimizeQuality; fill-rule:evenodd; clip-rule:evenodd"
viewBox="0 0 106.66 106.66"
 xmlns:xlink="http://www.w3.org/1999/xlink"
 xmlns:xodm="http://www.corel.com/coreldraw/odm/2003"
 data-name="Layer 1">
 <defs>
  <style type="text/css">
   <![CDATA[
    .fil0 {fill:#3C8DBC;fill-rule:nonzero}
    .fil1 {fill:white;fill-rule:nonzero}
   ]]>
  </style>
 </defs>
 <g id="Layer_x0020_1">
  <metadata id="CorelCorpID_0Corel-Layer"/>
  <path class="fil0" d="M76.4 81.53l-51.28 0 0 -51.28 30.77 0 0 -5.12 -30.77 0c-2.83,0 -5.12,2.3 -5.12,5.12l0 51.28c0,2.83 2.3,5.13 5.13,5.13l51.27 0c2.83,0 5.13,-2.3 5.13,-5.13l0 -30.76 -5.13 0 0 30.76z"/>
  <polygon class="fil0" points="40.5,66.23 51.3,66.23 77.46,40.07 66.59,29.2 40.5,55.28 "/>
  <path class="fil0" d="M85.15 25.13l-3.63 -3.63c-2,-2 -5.25,-2 -7.25,0l-4.06 4.06 10.88 10.88 4.06 -4.06c2.01,-2 2.01,-5.25 0,-7.25z"/>
  <g id="_959811120" i:extraneous="self">
   <path class="fil1" d="M213.94 49.54l-6.06 0 0 -13.74c0,-1.37 -1.11,-2.56 -2.56,-2.56l-24.83 0 0 -11.86c0,-2.48 -1.96,-4.52 -4.52,-4.52 -2.47,0 -4.52,2.05 -4.52,4.52l0 11.86 -24.83 0c-1.45,0 -2.56,1.19 -2.56,2.56l0 13.74 -5.97 0c-1.45,0 -2.56,1.19 -2.56,2.56l0 18.85c0,1.45 1.11,2.56 2.56,2.56l5.97 0 0 13.74c0,1.37 1.11,2.56 2.56,2.56l58.79 0c1.37,0 2.56,-1.11 2.56,-2.56l0 -13.65 6.06 0c1.37,0 2.56,-1.11 2.56,-2.56l0 -18.94c-0.09,-1.37 -1.28,-2.56 -2.65,-2.56zm-58.45 2.99c0,-3.93 3.16,-7.08 7.08,-7.08 3.93,0 7.08,3.16 7.08,7.08 0,3.93 -3.16,7.08 -7.08,7.08 -3.93,-0.09 -7.08,-3.15 -7.08,-7.08zm34.39 23.8c0,1.37 -1.11,2.56 -2.56,2.56l-22.78 0c-1.37,0 -2.56,-1.19 -2.56,-2.56l0 -2.81c0,-1.37 1.19,-2.56 2.56,-2.56l22.78 0c1.37,0 2.56,1.19 2.56,2.56l0 2.81zm-0.51 -16.81c-3.93,0 -7.08,-3.15 -7.08,-7.08 0,-3.93 3.16,-7.08 7.08,-7.08 3.93,0 7.08,3.16 7.08,7.08 0,4.01 -3.16,7.08 -7.08,7.08z"/>
  </g>
 </g>
</svg>
