<?xml version="1.0" encoding="utf-8"?>
<!-- Generator: Adobe Illustrator 16.0.0, SVG Export Plug-In . SVG Version: 6.00 Build 0)  -->
<!DOCTYPE svg PUBLIC "-//W3C//DTD SVG 1.1//EN" "http://www.w3.org/Graphics/SVG/1.1/DTD/svg11.dtd">
<svg version="1.1" id="Layer_2" xmlns="http://www.w3.org/2000/svg" xmlns:xlink="http://www.w3.org/1999/xlink" x="0px" y="0px"
	 width="16px" height="16px" viewBox="0 0 16 16" enable-background="new 0 0 16 16" xml:space="preserve">
<g>
	<path fill="#FFFFFF" d="M12.489,14.057h-8.98c-0.284,0-0.513-0.231-0.513-0.515v-1.52c0-0.723,0.428-1.382,1.088-1.676
		C6.006,9.487,5.9,9.517,6.05,9.517h0.61c0.236,0,0.441,0.161,0.499,0.392c0.215,0.874,1.466,0.874,1.682,0
		c0.056-0.23,0.262-0.392,0.498-0.392c0.657,0,0.69-0.013,0.819,0.045l1.758,0.785c0.66,0.294,1.088,0.953,1.088,1.676v1.52
		C13.004,13.825,12.773,14.057,12.489,14.057L12.489,14.057z M8.012,1.943c-1.728,0-3.135,1.406-3.135,3.135
		c0,1.728,1.407,3.135,3.135,3.135c1.729,0,3.136-1.407,3.136-3.135C11.147,3.35,9.74,1.943,8.012,1.943L8.012,1.943z M3.067,5.297
		c-1.088,0-1.973,0.884-1.973,1.973c0,1.088,0.885,1.974,1.973,1.974c1.088,0,1.974-0.886,1.974-1.974
		C5.041,6.181,4.155,5.297,3.067,5.297z M12.934,5.297c-1.091,0-1.976,0.884-1.976,1.973c0,1.088,0.885,1.974,1.976,1.974
		c1.087,0,1.973-0.886,1.973-1.974C14.906,6.181,14.021,5.297,12.934,5.297z M15.213,9.998c-1.067-0.479-1.042-0.482-1.188-0.482
		c-0.765,0-1.266-0.006-1.604-0.007c-0.334-0.003-0.446,0.448-0.149,0.605c0.246,0.127,0.394,0.234,0.569,0.428
		c0.513,0.558,0.562,1.149,0.562,1.637c0,0.178,0.142,0.321,0.319,0.321h1.72c0.283,0,0.514-0.23,0.514-0.514V11.14
		C15.955,10.647,15.664,10.198,15.213,9.998L15.213,9.998z M1.975,9.516c-0.145,0-0.117,0.004-1.188,0.482
		c-0.45,0.2-0.742,0.649-0.742,1.142v0.847c0,0.283,0.229,0.514,0.513,0.514h1.719c0.178,0,0.321-0.145,0.321-0.321
		c-0.001-0.49,0.046-1.076,0.562-1.637c0.175-0.19,0.324-0.301,0.563-0.427C4.02,9.96,3.91,9.51,3.574,9.512
		C3.233,9.512,2.733,9.516,1.975,9.516L1.975,9.516z"/>
</g>
</svg>
