<?xml version="1.0" encoding="utf-8"?>
<!-- Generator: Adobe Illustrator 16.0.0, SVG Export Plug-In . SVG Version: 6.00 Build 0)  -->
<!DOCTYPE svg PUBLIC "-//W3C//DTD SVG 1.1//EN" "http://www.w3.org/Graphics/SVG/1.1/DTD/svg11.dtd">
<svg version="1.1" id="Layer_1" xmlns="http://www.w3.org/2000/svg" xmlns:xlink="http://www.w3.org/1999/xlink" x="0px" y="0px"
	 width="16px" height="16px" viewBox="0 0 16 16" enable-background="new 0 0 16 16" xml:space="preserve">
<g>
	<path fill="#FFFFFF" d="M0.035,1.018v4.136h15.93V1.018c0-0.542-0.44-0.983-0.983-0.983H1.018C0.476,0.035,0.035,0.476,0.035,1.018
		z M6.103,2.747c0-0.374,0.304-0.679,0.678-0.679h0.374c0.371,0,0.677,0.305,0.677,0.679c0,0.373-0.306,0.678-0.677,0.678H6.78
		C6.406,3.425,6.103,3.12,6.103,2.747z M3.018,2.747c0-0.374,0.306-0.679,0.678-0.679h0.373c0.373,0,0.678,0.305,0.678,0.679
		c0,0.373-0.305,0.678-0.678,0.678H3.695C3.356,3.425,3.018,3.12,3.018,2.747z"/>
	<path fill="#FFFFFF" d="M0.035,6.475v8.507c0,0.543,0.44,0.982,0.982,0.982h13.964c0.543,0,0.983-0.439,0.983-0.982V6.475H0.035z
		 M4.001,10.475c0-0.373,0.305-0.678,0.678-0.678h5.084L8.949,8.984c-0.271-0.272-0.271-0.678,0-0.95
		c0.271-0.271,0.678-0.271,0.948,0l1.897,1.965l0.035,0.035c0,0.034,0.033,0.034,0.033,0.067c0,0.034,0.035,0.034,0.035,0.068
		c0,0.033,0.033,0.033,0.033,0.068c0.035,0.033,0.035,0.033,0.035,0.066c0,0.034,0,0.034,0,0.067c0,0.103,0,0.171,0,0.272
		c0,0.033,0,0.033,0,0.067c-0.035,0.034-0.035,0.034-0.035,0.068c0,0.033-0.033,0.033-0.033,0.068c0,0.032-0.035,0.032-0.035,0.067
		c0,0.034-0.033,0.034-0.033,0.066l-0.035,0.034l-1.897,1.966c-0.135,0.136-0.304,0.204-0.474,0.204s-0.34-0.068-0.475-0.204
		c-0.237-0.271-0.271-0.677,0-0.948l0.813-0.813H4.679C4.306,11.221,4.001,10.849,4.001,10.475z"/>
</g>
</svg>
