<?xml version="1.0" encoding="utf-8"?>
<!-- Generator: Adobe Illustrator 16.0.0, SVG Export Plug-In . SVG Version: 6.00 Build 0)  -->
<!DOCTYPE svg PUBLIC "-//W3C//DTD SVG 1.1//EN" "http://www.w3.org/Graphics/SVG/1.1/DTD/svg11.dtd">
<svg version="1.1" id="Layer_1" xmlns="http://www.w3.org/2000/svg" xmlns:xlink="http://www.w3.org/1999/xlink" x="0px" y="0px"
	 width="16px" height="16px" viewBox="0 0 16 16" enable-background="new 0 0 16 16" xml:space="preserve">
<g>
	<path fill="#FFFFFF" d="M14.281,8.106v-8.137l-4.5,1.852v6.448c0.603-0.341,1.188-0.639,2.047-0.718
		C12.753,7.464,13.781,7.797,14.281,8.106z"/>
	<path fill="#FFFFFF" d="M9.437,8.466V1.82l-4.5-1.852V12.93L8,14.241c-0.281-0.589-0.469-1.218-0.469-2.082
		C7.531,10.699,8.338,9.234,9.437,8.466z"/>
	<polygon fill="#FFFFFF" points="0,14.781 4.5,12.93 4.5,-0.031 0,1.82 	"/>
	<path fill="#FFFFFF" d="M12.308,8.616c-2.039,0-3.692,1.651-3.692,3.69S10.269,16,12.308,16S16,14.346,16,12.307
		S14.347,8.616,12.308,8.616z M11.819,14.023l-1.717-1.717l0.738-0.733l0.979,0.978l1.956-1.957l0.737,0.736L11.819,14.023z"/>
</g>
</svg>
