<?xml version="1.0" encoding="utf-8"?>
<!-- Generator: Adobe Illustrator 16.0.0, SVG Export Plug-In . SVG Version: 6.00 Build 0)  -->
<!DOCTYPE svg PUBLIC "-//W3C//DTD SVG 1.1//EN" "http://www.w3.org/Graphics/SVG/1.1/DTD/svg11.dtd">
<svg version="1.1" id="Layer_1" xmlns="http://www.w3.org/2000/svg" xmlns:xlink="http://www.w3.org/1999/xlink" x="0px" y="0px"
	 width="16px" height="16px" viewBox="0 0 16 16" enable-background="new 0 0 16 16" xml:space="preserve">
<g>
	<g id="visibility">
		<path fill="#FFFFFF" d="M8,2.577c-3.633,0-6.759,2.241-7.995,5.424C1.241,11.183,4.367,13.423,8,13.423
			c3.634,0,6.76-2.24,7.995-5.422C14.76,4.818,11.634,2.577,8,2.577z M8,11.614c-2.035,0-3.633-1.591-3.633-3.613
			c0-2.025,1.598-3.615,3.633-3.615s3.634,1.59,3.634,3.615C11.634,10.023,10.035,11.614,8,11.614z M8,5.831
			c-1.235,0-2.181,0.939-2.181,2.17C5.819,9.23,6.765,10.17,8,10.17c1.236,0,2.181-0.939,2.181-2.169
			C10.181,6.771,9.236,5.831,8,5.831z"/>
	</g>
</g>
</svg>
