<?xml version="1.0" encoding="utf-8"?>
<!-- Generator: Adobe Illustrator 24.1.1, SVG Export Plug-In . SVG Version: 6.00 Build 0)  -->
<svg version="1.1" id="Layer_1" xmlns="http://www.w3.org/2000/svg" xmlns:xlink="http://www.w3.org/1999/xlink" x="0px" y="0px"
	 viewBox="0 0 15 15" style="enable-background:new 0 0 15 15;" xml:space="preserve">
<style type="text/css">
	.st0{fill:#FFFFFF;}
</style>
<g>
	<path class="st0" d="M2.76,7.01L1.63,7.01c-0.26,0-0.5,0.23-0.5,0.49c0,0.26,0.24,0.49,0.5,0.49l1.14-0.01
		c0.26,0,0.49-0.23,0.49-0.49C3.26,7.24,3.02,7,2.76,7.01z"/>
	<path class="st0" d="M7.51,3.26C7.77,3.26,8,3.02,8,2.77L7.99,1.63c0-0.26-0.24-0.5-0.5-0.49c-0.26,0.01-0.48,0.24-0.48,0.5
		l0.01,1.13C7.01,3.02,7.25,3.26,7.51,3.26z"/>
	<path class="st0" d="M5.4,3.84C5.62,3.71,5.7,3.37,5.56,3.15L4.99,2.17c-0.23-0.28-0.42-0.29-0.7-0.16
		c-0.2,0.16-0.25,0.46-0.14,0.65l0.57,0.98C4.84,3.88,5.17,3.97,5.4,3.84z"/>
	<path class="st0" d="M3.64,4.71L2.66,4.14C2.41,4.01,2.2,4.12,2.02,4.27c-0.17,0.24-0.06,0.6,0.15,0.72l0.98,0.56
		C3.38,5.7,3.71,5.62,3.85,5.39C3.98,5.16,3.88,4.83,3.64,4.71z"/>
	<path class="st0" d="M9.95,9.95c-1.65,0-3.3,0-4.94,0c-0.24,0.03-0.44,0.25-0.44,0.49v1.63c0,0.26,0.23,0.49,0.49,0.49h4.89
		c0.26,0,0.49-0.23,0.49-0.49v-1.63C10.44,10.19,10.21,9.95,9.95,9.95z M6.2,11.58H5.55v-0.65H6.2V11.58z M7.83,11.58H7.18v-0.65
		h0.65V11.58z M9.46,11.58H8.81v-0.65h0.65V11.58z"/>
	<path class="st0" d="M13.37,7.01l-1.14,0.01c-0.26,0-0.49,0.23-0.49,0.49c0,0.26,0.24,0.49,0.5,0.49l1.13-0.01
		c0.26,0,0.5-0.23,0.5-0.49S13.63,7,13.37,7.01z"/>
	<path class="st0" d="M7.5,0C3.36,0,0,3.37,0,7.5C0,11.64,3.36,15,7.5,15S15,11.64,15,7.5C15,3.37,11.64,0,7.5,0z M7.5,14.02
		c-3.61,0-6.53-2.91-6.53-6.51S3.89,0.98,7.5,0.98s6.52,2.91,6.52,6.52S11.11,14.02,7.5,14.02z"/>
	<path class="st0" d="M12.83,4.99c0.24-0.23,0.29-0.45,0.16-0.7c-0.22-0.21-0.4-0.24-0.65-0.14l-0.98,0.57
		c-0.22,0.13-0.31,0.45-0.18,0.67c0.13,0.22,0.45,0.31,0.67,0.18L12.83,4.99z"/>
	<path class="st0" d="M9.98,4.39C9.61,4.55,9.29,4.85,9,5.08L7.55,6.53C6.93,6.52,6.54,7.07,6.52,7.5c0,0.53,0.44,0.98,0.98,0.98
		c0.73,0,0.97-0.57,0.97-1.03L9.92,6c0.25-0.34,0.55-0.65,0.69-0.98c0.06-0.18,0-0.4-0.12-0.52C10.33,4.36,10.18,4.35,9.98,4.39z"/>
	<path class="st0" d="M10.64,1.97c-0.24-0.09-0.51-0.01-0.63,0.2L9.45,3.16C9.32,3.38,9.41,3.7,9.63,3.83
		c0.22,0.13,0.54,0.04,0.67-0.18l0.56-0.98C10.98,2.34,10.89,2.13,10.64,1.97z"/>
</g>
</svg>
