<?xml version="1.0" encoding="utf-8"?>
<!-- Generator: Adobe Illustrator 16.0.0, SVG Export Plug-In . SVG Version: 6.00 Build 0)  -->
<!DOCTYPE svg PUBLIC "-//W3C//DTD SVG 1.1//EN" "http://www.w3.org/Graphics/SVG/1.1/DTD/svg11.dtd">
<svg version="1.1" id="Capa_1" xmlns="http://www.w3.org/2000/svg" xmlns:xlink="http://www.w3.org/1999/xlink" x="0px" y="0px"
	 width="16px" height="16px" viewBox="0 0 16 16" enable-background="new 0 0 16 16" xml:space="preserve">
<g>
	<path fill="#FFFFFF" d="M13.212,5.87c1.169,0,2.108-0.943,2.108-2.106c0-1.164-0.94-2.107-2.108-2.107
		c-1.161,0-2.103,0.943-2.103,2.107C11.109,4.926,12.051,5.87,13.212,5.87z"/>
	<path fill="#FFFFFF" d="M14.902,6.212h-3.377c-0.501,0-0.924,0.387-1.053,0.908l-2.005,4.104c-0.028-0.002-0.053-0.016-0.082-0.016
		H7.612c-0.028,0-0.053,0.014-0.081,0.016L5.527,7.121C5.398,6.6,4.977,6.212,4.475,6.212H1.095C0.491,6.212,0,6.767,0,7.446v6.898
		h5.57v-4.076l1.216,2.25c0.118,0.391,0.439,0.674,0.827,0.674h0.773c0.387,0,0.709-0.283,0.828-0.674l1.216-2.25v4.076H16V7.446
		C15.999,6.767,15.508,6.212,14.902,6.212z"/>
	<path fill="#FFFFFF" d="M2.787,5.87c1.162,0,2.103-0.943,2.103-2.106C4.89,2.6,3.949,1.656,2.787,1.656
		c-1.167,0-2.108,0.943-2.108,2.107C0.678,4.926,1.619,5.87,2.787,5.87z"/>
</g>
</svg>
