<?xml version="1.0" encoding="utf-8"?>
<!-- Generator: Adobe Illustrator 16.0.0, SVG Export Plug-In . SVG Version: 6.00 Build 0)  -->
<!DOCTYPE svg PUBLIC "-//W3C//DTD SVG 1.1//EN" "http://www.w3.org/Graphics/SVG/1.1/DTD/svg11.dtd">
<svg version="1.1" id="Layer_6" xmlns="http://www.w3.org/2000/svg" xmlns:xlink="http://www.w3.org/1999/xlink" x="0px" y="0px"
	 width="16px" height="16px" viewBox="0 0 16 16" enable-background="new 0 0 16 16" xml:space="preserve">
<g>
	<path fill="#FFFFFF" d="M5.291,8.688C5.42,8.91,5.707,8.989,5.932,8.859l1.032-0.594C7.072,8.201,7.15,8.098,7.182,7.98
		c0.034-0.121,0.016-0.248-0.047-0.357L6.748,6.952C7.102,6.44,7.064,6.496,7.335,5.932h0.773c0.261,0,0.47-0.204,0.47-0.462V4.276
		c0-0.258-0.209-0.467-0.47-0.467H7.335C7.07,3.253,7.107,3.319,6.748,2.796l0.389-0.673c0.061-0.107,0.079-0.236,0.045-0.355
		c-0.031-0.12-0.11-0.223-0.218-0.284L5.932,0.887C5.708,0.758,5.42,0.835,5.292,1.059L4.908,1.722c-0.61-0.055-0.546-0.057-1.181,0
		L3.346,1.059C3.215,0.835,2.93,0.758,2.706,0.887L1.673,1.484C1.564,1.545,1.487,1.648,1.455,1.768
		C1.422,1.887,1.439,2.016,1.501,2.124L1.89,2.796C1.536,3.309,1.571,3.245,1.302,3.809H0.528c-0.258,0-0.468,0.209-0.468,0.467
		V5.47c0,0.258,0.21,0.462,0.468,0.462h0.774C1.566,6.485,1.53,6.43,1.889,6.953l-0.388,0.67C1.439,7.732,1.422,7.859,1.455,7.98
		c0.032,0.118,0.11,0.221,0.218,0.285l1.033,0.594C2.813,8.924,2.94,8.938,3.061,8.907c0.121-0.032,0.222-0.112,0.285-0.219
		l0.382-0.663c0.631,0.055,0.57,0.053,1.18,0L5.291,8.688z M4.318,6.471c-0.88,0-1.597-0.717-1.597-1.597
		c0-0.881,0.717-1.597,1.597-1.597s1.597,0.716,1.597,1.597C5.915,5.754,5.199,6.471,4.318,6.471z"/>
	<path fill="#FFFFFF" d="M12.635,14.978c0.13,0.224,0.415,0.303,0.64,0.172l1.033-0.596c0.109-0.063,0.187-0.165,0.22-0.284
		c0.03-0.12,0.014-0.248-0.048-0.357l-0.388-0.67c0.354-0.513,0.314-0.457,0.586-1.021h0.775c0.259,0,0.469-0.203,0.469-0.461
		v-1.193c0-0.257-0.21-0.468-0.469-0.468h-0.775c-0.262-0.557-0.227-0.491-0.586-1.014l0.389-0.67
		c0.061-0.108,0.077-0.237,0.047-0.357c-0.033-0.119-0.11-0.222-0.22-0.283l-1.033-0.596c-0.223-0.13-0.51-0.053-0.64,0.171
		l-0.383,0.662c-0.608-0.055-0.548-0.057-1.179,0l-0.384-0.662c-0.13-0.225-0.416-0.302-0.64-0.171L9.016,7.774
		C8.909,7.835,8.829,7.938,8.797,8.057c-0.031,0.12-0.016,0.249,0.048,0.357l0.391,0.67C8.879,9.6,8.916,9.534,8.646,10.099H7.871
		c-0.258,0-0.468,0.211-0.468,0.468v1.193c0,0.258,0.21,0.461,0.468,0.461h0.775c0.265,0.555,0.228,0.497,0.587,1.021l-0.388,0.67
		c-0.063,0.109-0.079,0.237-0.048,0.357c0.032,0.119,0.112,0.222,0.219,0.284l1.034,0.596c0.108,0.063,0.234,0.08,0.355,0.048
		c0.122-0.032,0.223-0.112,0.284-0.219l0.384-0.663c0.63,0.056,0.57,0.054,1.179,0L12.635,14.978z M11.664,12.76
		c-0.883,0-1.598-0.717-1.598-1.597c0-0.881,0.715-1.597,1.598-1.597c0.879,0,1.594,0.716,1.594,1.597
		C13.258,12.043,12.543,12.76,11.664,12.76z"/>
	<g>
		<g>
			<path fill="#FFFFFF" d="M15.934,4.392c-0.013-0.034-0.046-0.055-0.083-0.055h-0.981v-3.46c0-0.049-0.04-0.09-0.088-0.09h-1.43
				c-0.051,0-0.092,0.041-0.092,0.09v3.46h-0.982c-0.037,0-0.069,0.021-0.084,0.055c-0.016,0.034-0.006,0.071,0.02,0.097
				l1.785,1.791c0.016,0.018,0.04,0.027,0.063,0.027c0.024,0,0.048-0.009,0.062-0.027l1.791-1.791
				C15.94,4.463,15.948,4.425,15.934,4.392z"/>
		</g>
	</g>
	<rect x="8.624" y="0.787" fill="#FFFFFF" width="5.615" height="1.49"/>
	<g>
		<g>
			<g>
				<path fill="#FFFFFF" d="M0.067,11.61c0.013,0.032,0.045,0.054,0.083,0.054h0.98v3.458c0,0.051,0.039,0.091,0.088,0.091H2.65
					c0.05,0,0.09-0.04,0.09-0.091v-3.458h0.982c0.038,0,0.069-0.021,0.084-0.054c0.014-0.036,0.005-0.075-0.021-0.1L2.002,9.72
					C1.985,9.702,1.962,9.692,1.94,9.692c-0.025,0-0.048,0.01-0.064,0.027l-1.79,1.791C0.06,11.535,0.052,11.574,0.067,11.61z"/>
			</g>
		</g>
		<rect x="1.761" y="13.723" fill="#FFFFFF" width="5.615" height="1.49"/>
	</g>
</g>
</svg>
