<?xml version="1.0" encoding="utf-8"?>
<!-- Generator: Adobe Illustrator 16.0.0, SVG Export Plug-In . SVG Version: 6.00 Build 0)  -->
<!DOCTYPE svg PUBLIC "-//W3C//DTD SVG 1.1//EN" "http://www.w3.org/Graphics/SVG/1.1/DTD/svg11.dtd">
<svg version="1.1" id="Layer_1" xmlns="http://www.w3.org/2000/svg" xmlns:xlink="http://www.w3.org/1999/xlink" x="0px" y="0px"
	 width="16px" height="16px" viewBox="0 0 16 16" enable-background="new 0 0 16 16" xml:space="preserve">
<path fill="#FFFFFF" d="M15.732,14.907c0.023-0.027,0.045-0.056,0.063-0.086c0.021-0.031,0.037-0.064,0.055-0.098
	c0.016-0.033,0.033-0.063,0.047-0.098c0.012-0.034,0.021-0.07,0.031-0.107c0.01-0.035,0.02-0.067,0.027-0.104
	c0.008-0.039,0.008-0.082,0.012-0.123c0.002-0.025,0.008-0.049,0.008-0.074c0-0.008-0.002-0.016-0.002-0.021
	c-0.002-0.044-0.008-0.088-0.014-0.129c-0.004-0.031-0.006-0.064-0.014-0.095c-0.008-0.036-0.021-0.072-0.033-0.108
	c-0.012-0.033-0.021-0.07-0.037-0.104c-0.012-0.029-0.029-0.058-0.045-0.086c-0.021-0.037-0.041-0.074-0.064-0.107
	c-0.006-0.008-0.008-0.016-0.014-0.021l-4.576-6.203c-0.002-0.005-0.006-0.009-0.012-0.014c-0.021-0.03-0.051-0.057-0.078-0.086
	c-0.025-0.027-0.051-0.058-0.08-0.083c-0.004-0.004-0.008-0.009-0.014-0.013c-0.02-0.018-0.045-0.03-0.066-0.046
	c-0.033-0.024-0.066-0.05-0.104-0.069c-0.033-0.019-0.066-0.032-0.1-0.048c-0.033-0.015-0.064-0.03-0.098-0.041
	c-0.039-0.013-0.076-0.021-0.117-0.028c-0.031-0.008-0.063-0.017-0.096-0.021c-0.039-0.005-0.076-0.005-0.115-0.006
	c-0.035-0.001-0.068-0.004-0.102-0.001c-0.037,0.002-0.074,0.009-0.111,0.016c-0.035,0.005-0.07,0.01-0.105,0.02
	c-0.037,0.009-0.07,0.023-0.107,0.037C9.838,6.974,9.807,6.984,9.773,6.999C9.736,7.018,9.701,7.041,9.666,7.064
	c-0.023,0.014-0.049,0.024-0.07,0.04c-0.004,0.005-0.008,0.01-0.014,0.014c-0.029,0.022-0.057,0.05-0.084,0.075
	C9.469,7.221,9.439,7.247,9.412,7.276C9.41,7.281,9.404,7.284,9.4,7.289L7.943,9.03L6.436,6.232V5.536h2.775
	c0.625,0,1.131-0.506,1.131-1.131V1.782c0-0.625-0.506-1.131-1.131-1.131H5.306c-0.624,0-1.131,0.506-1.131,1.131v2.623v1.828
	l-4.013,7.447c-0.008,0.017-0.012,0.031-0.019,0.047c-0.018,0.036-0.033,0.074-0.047,0.112c-0.013,0.032-0.023,0.067-0.032,0.103
	c-0.009,0.033-0.015,0.069-0.021,0.105c-0.007,0.04-0.011,0.079-0.012,0.121c0,0.016-0.005,0.031-0.005,0.049
	s0.005,0.035,0.005,0.051c0.002,0.042,0.006,0.081,0.013,0.12c0.005,0.036,0.011,0.071,0.02,0.104
	c0.009,0.035,0.02,0.07,0.032,0.104c0.013,0.035,0.027,0.07,0.042,0.104s0.033,0.063,0.051,0.094
	c0.019,0.03,0.038,0.063,0.059,0.092c0.022,0.029,0.046,0.057,0.07,0.084c0.024,0.027,0.05,0.053,0.077,0.078
	c0.026,0.024,0.054,0.046,0.082,0.066c0.033,0.025,0.065,0.047,0.1,0.068c0.015,0.009,0.027,0.021,0.043,0.031
	c0.012,0.004,0.024,0.006,0.037,0.013c0.057,0.028,0.116,0.05,0.178,0.068c0.023,0.007,0.046,0.017,0.068,0.022
	c0.077,0.016,0.153,0.025,0.233,0.029c0.006,0,0.013,0.002,0.019,0.002c0.001,0,0.003-0.001,0.005-0.001h8.291
	c0,0,0.002,0.001,0.004,0.001s0.002-0.001,0.004-0.001h5.385l0,0l0,0c0.068,0,0.137-0.009,0.207-0.021
	c0.021-0.005,0.041-0.01,0.063-0.016c0.045-0.011,0.09-0.025,0.131-0.041c0.025-0.008,0.047-0.018,0.07-0.027
	c0.039-0.02,0.078-0.042,0.117-0.064c0.02-0.012,0.041-0.025,0.061-0.037c0.006-0.007,0.016-0.01,0.023-0.016
	c0.02-0.015,0.037-0.033,0.057-0.051c0.029-0.027,0.061-0.053,0.09-0.082C15.688,14.966,15.709,14.937,15.732,14.907z M10.211,9.843
	l2.395,3.244h-2.477L9.1,11.174L10.211,9.843z M5.306,8.902l1.427,2.646c0.001,0.003,0.002,0.005,0.003,0.006l0.826,1.532H3.05
	L5.306,8.902z M8.081,3.275H6.436V2.912h1.645V3.275z"/>
</svg>
