<?xml version="1.0" encoding="utf-8"?>
<!-- Generator: Adobe Illustrator 16.0.0, SVG Export Plug-In . SVG Version: 6.00 Build 0)  -->
<!DOCTYPE svg PUBLIC "-//W3C//DTD SVG 1.1//EN" "http://www.w3.org/Graphics/SVG/1.1/DTD/svg11.dtd">
<svg version="1.1" id="Layer_1" xmlns="http://www.w3.org/2000/svg" xmlns:xlink="http://www.w3.org/1999/xlink" x="0px" y="0px"
	 width="16px" height="16px" viewBox="0 0 16 16" enable-background="new 0 0 16 16" xml:space="preserve">
<g>
	<g>
		<path fill="#FFFFFF" d="M15.29,12.904L9.176,1.839c-0.229-0.414-0.665-0.67-1.138-0.67H7.961c-0.472,0-0.907,0.257-1.136,0.671
			L0.71,12.904c-0.106,0.193-0.162,0.41-0.162,0.629c0,0.717,0.582,1.299,1.297,1.299h12.31c0.715,0,1.297-0.582,1.297-1.299
			C15.452,13.314,15.396,13.098,15.29,12.904z M10.409,9.133L6.683,13.48c-0.061,0.07-0.148,0.109-0.236,0.109
			c-0.055,0-0.111-0.014-0.161-0.047c-0.129-0.078-0.184-0.238-0.127-0.379l1.072-2.68H5.827c-0.102,0-0.196-0.051-0.254-0.133
			c-0.058-0.08-0.072-0.188-0.038-0.283l1.553-4.347c0.044-0.124,0.162-0.205,0.292-0.205h2.173c0.104,0,0.2,0.05,0.258,0.136
			c0.058,0.084,0.07,0.193,0.031,0.289L8.77,8.621h1.405c0.119,0,0.23,0.071,0.281,0.181C10.507,8.912,10.489,9.041,10.409,9.133z"
			/>
	</g>
</g>
</svg>
