<?xml version="1.0" encoding="utf-8"?>
<!-- Generator: Adobe Illustrator 16.0.0, SVG Export Plug-In . SVG Version: 6.00 Build 0)  -->
<!DOCTYPE svg PUBLIC "-//W3C//DTD SVG 1.1//EN" "http://www.w3.org/Graphics/SVG/1.1/DTD/svg11.dtd">
<svg version="1.1" id="Layer_1" xmlns="http://www.w3.org/2000/svg" xmlns:xlink="http://www.w3.org/1999/xlink" x="0px" y="0px"
	 width="16px" height="16px" viewBox="0 0 16 16" enable-background="new 0 0 16 16" xml:space="preserve">
<g>
	<path fill="#FFFFFF" d="M7.843,13.45c-3.694,0-7.852,0-7.852,0c0-2.67,1.556-4.978,3.809-6.065c-0.832-0.78-1.354-1.889-1.354-3.12
		c0-2.361,1.914-4.274,4.274-4.274c2.36,0,4.273,1.913,4.273,4.274c0,1.231-0.521,2.34-1.354,3.121
		c0.364,0.175,0.712,0.383,1.035,0.619C8.488,8.833,7.265,11.182,7.843,13.45z M16.009,12.315c0,2.039-1.653,3.693-3.693,3.693
		c-2.039,0-3.692-1.654-3.692-3.693s1.654-3.691,3.692-3.691C14.355,8.624,16.009,10.276,16.009,12.315z M14.521,11.338
		l-0.737-0.736l-1.956,1.956l-0.978-0.977l-0.739,0.734l1.717,1.716L14.521,11.338z"/>
</g>
</svg>
