<?xml version="1.0" encoding="utf-8"?>
<!-- Generator: Adobe Illustrator 16.0.0, SVG Export Plug-In . SVG Version: 6.00 Build 0)  -->
<!DOCTYPE svg PUBLIC "-//W3C//DTD SVG 1.1//EN" "http://www.w3.org/Graphics/SVG/1.1/DTD/svg11.dtd">
<svg version="1.1" id="Layer_1" xmlns="http://www.w3.org/2000/svg" xmlns:xlink="http://www.w3.org/1999/xlink" x="0px" y="0px"
	 width="16px" height="16px" viewBox="0 0 16 16" enable-background="new 0 0 16 16" xml:space="preserve">
<title>special-item</title>
<desc>Created with Sketch.</desc>
<path fill="#FFFFFF" d="M12.267,0H3.733C2.56,0,1.6,0.96,1.6,2.133v11.733C1.6,15.04,2.56,16,3.733,16h8.533
	c1.173,0,2.134-0.96,2.134-2.134V2.133C14.4,0.96,13.439,0,12.267,0z M5.156,2.844h5.688c0.392,0,0.712,0.32,0.712,0.711
	s-0.32,0.711-0.712,0.711H5.156c-0.391,0-0.711-0.32-0.711-0.711S4.765,2.844,5.156,2.844z M5.156,5.689h5.688
	c0.392,0,0.712,0.32,0.712,0.711s-0.32,0.711-0.712,0.711H5.156c-0.391,0-0.711-0.32-0.711-0.711S4.765,5.689,5.156,5.689z
	 M9.542,13.208H5.155c-0.391,0-0.711-0.32-0.711-0.712c0-0.391,0.32-0.711,0.711-0.711h4.387c0.393,0,0.713,0.32,0.713,0.711
	C10.255,12.888,9.935,13.208,9.542,13.208z M10.844,9.958H5.157c-0.294,0-0.548-0.182-0.656-0.438
	C4.464,9.436,4.444,9.342,4.444,9.244c0-0.391,0.32-0.711,0.711-0.711h3.555c0.004,0,0.006,0.002,0.01,0.002h2.123
	c0.393,0,0.713,0.32,0.713,0.711C11.557,9.638,11.236,9.958,10.844,9.958z"/>
</svg>
