<?xml version="1.0" encoding="utf-8"?>
<!-- Generator: Adobe Illustrator 16.0.0, SVG Export Plug-In . SVG Version: 6.00 Build 0)  -->
<!DOCTYPE svg PUBLIC "-//W3C//DTD SVG 1.1//EN" "http://www.w3.org/Graphics/SVG/1.1/DTD/svg11.dtd">
<svg version="1.1" id="Layer_5" xmlns="http://www.w3.org/2000/svg" xmlns:xlink="http://www.w3.org/1999/xlink" x="0px" y="0px"
	 width="16px" height="16px" viewBox="0 0 16 16" enable-background="new 0 0 16 16" xml:space="preserve">
<g>
	<path fill="#FFFFFF" d="M2.183,12.625c0.921,0,1.67-0.749,1.67-1.67c0-0.92-0.749-1.67-1.67-1.67s-1.67,0.75-1.67,1.67
		C0.513,11.876,1.262,12.625,2.183,12.625z"/>
	<path fill="#FFFFFF" d="M4.368,16v-1.191c0-1.205-0.979-2.184-2.185-2.184S0,13.604,0,14.809V16"/>
	<g>
		<path fill="#FFFFFF" d="M8,3.34c0.92,0,1.67-0.749,1.67-1.67C9.67,0.75,8.92,0,8,0C7.078,0,6.33,0.75,6.33,1.67
			C6.33,2.591,7.078,3.34,8,3.34z"/>
		<path fill="#FFFFFF" d="M10.184,6.715V5.523C10.184,4.318,9.205,3.34,8,3.34c-1.207,0-2.184,0.979-2.184,2.184v1.191"/>
	</g>
	<path fill="#FFFFFF" d="M13.8,12.623c0.92,0,1.67-0.749,1.67-1.67c0-0.92-0.75-1.67-1.67-1.67c-0.922,0-1.67,0.75-1.67,1.67
		C12.13,11.874,12.878,12.623,13.8,12.623z"/>
	<path fill="#FFFFFF" d="M15.983,15.998v-1.191c0-1.205-0.979-2.184-2.184-2.184c-1.207,0-2.184,0.979-2.184,2.184v1.191"/>
	<g>
		<path fill="#FFFFFF" d="M8,12.625c0.92,0,1.67-0.749,1.67-1.67c0-0.92-0.75-1.67-1.67-1.67c-0.922,0-1.67,0.75-1.67,1.67
			C6.33,11.876,7.078,12.625,8,12.625z"/>
		<path fill="#FFFFFF" d="M10.184,16v-1.191c0-1.205-0.979-2.184-2.184-2.184c-1.207,0-2.184,0.979-2.184,2.184V16"/>
	</g>
	<rect x="1.445" y="6.604" fill="#FFFFFF" width="13.109" height="1.5"/>
	<rect x="13.05" y="6.604" fill="#FFFFFF" width="1.5" height="3.829"/>
	<rect x="7.25" y="6.875" fill="#FFFFFF" width="1.5" height="3.829"/>
	<rect x="1.433" y="6.715" fill="#FFFFFF" width="1.5" height="3.829"/>
</g>
</svg>
