<?xml version="1.0" encoding="utf-8"?>
<!-- Generator: Adobe Illustrator 16.0.0, SVG Export Plug-In . SVG Version: 6.00 Build 0)  -->
<!DOCTYPE svg PUBLIC "-//W3C//DTD SVG 1.1//EN" "http://www.w3.org/Graphics/SVG/1.1/DTD/svg11.dtd">
<svg version="1.1" id="Layer_7" xmlns="http://www.w3.org/2000/svg" xmlns:xlink="http://www.w3.org/1999/xlink" x="0px" y="0px"
	 width="16px" height="16px" viewBox="0 0 16 16" enable-background="new 0 0 16 16" xml:space="preserve">
<g>
	<path fill="#FFFFFF" d="M6.012,8.855c0.129,0.223,0.416,0.301,0.641,0.172l1.032-0.594c0.108-0.064,0.187-0.168,0.218-0.285
		c0.033-0.121,0.016-0.248-0.047-0.357L7.469,7.121C7.822,6.608,7.785,6.665,8.057,6.1h0.772c0.261,0,0.47-0.204,0.47-0.462V4.445
		c0-0.258-0.209-0.467-0.47-0.467H8.057c-0.266-0.556-0.229-0.49-0.588-1.013l0.389-0.673c0.061-0.107,0.078-0.236,0.045-0.355
		c-0.031-0.12-0.109-0.223-0.218-0.284L6.652,1.056C6.43,0.926,6.141,1.003,6.012,1.227L5.629,1.89
		c-0.609-0.055-0.547-0.057-1.181,0L4.066,1.227C3.936,1.003,3.65,0.926,3.426,1.056L2.394,1.652
		C2.285,1.714,2.207,1.817,2.176,1.937C2.143,2.056,2.16,2.185,2.223,2.292l0.389,0.672C2.256,3.478,2.292,3.413,2.022,3.978H1.248
		c-0.258,0-0.468,0.209-0.468,0.467v1.193C0.78,5.896,0.99,6.1,1.248,6.1h0.774C2.287,6.653,2.25,6.599,2.609,7.121l-0.387,0.67
		C2.16,7.901,2.143,8.028,2.176,8.148c0.031,0.117,0.109,0.221,0.218,0.285l1.032,0.594c0.107,0.064,0.235,0.078,0.355,0.047
		c0.121-0.031,0.223-0.111,0.285-0.219l0.383-0.662c0.631,0.055,0.57,0.053,1.18,0L6.012,8.855z M5.039,6.639
		c-0.881,0-1.598-0.717-1.598-1.597c0-0.881,0.717-1.597,1.598-1.597s1.597,0.716,1.597,1.597C6.636,5.922,5.92,6.639,5.039,6.639z"
		/>
	<g>
		<g>
			<path fill="#FFFFFF" d="M11.306,14.812c0.034-0.015,0.057-0.053,0.057-0.095v-1.12h3.628c0.052,0,0.095-0.046,0.095-0.101v-1.632
				c0-0.059-0.043-0.105-0.095-0.105h-3.628v-1.121c0-0.042-0.022-0.079-0.057-0.096c-0.035-0.018-0.075-0.007-0.102,0.022
				l-1.877,2.037c-0.018,0.019-0.028,0.046-0.028,0.072c0,0.027,0.011,0.054,0.028,0.069l1.877,2.045
				C11.23,14.819,11.271,14.828,11.306,14.812z"/>
		</g>
	</g>
	<rect x="10.637" y="4.035" fill="#FFFFFF" width="3.924" height="2.015"/>
	<path fill="#FFFFFF" d="M5.747,15.257c0.094,0.15,0.302,0.203,0.466,0.115l0.751-0.402c0.08-0.043,0.135-0.111,0.159-0.193
		c0.023-0.079,0.01-0.166-0.035-0.241l-0.282-0.453c0.258-0.346,0.229-0.309,0.426-0.691h0.564c0.189,0,0.341-0.136,0.341-0.312
		v-0.806c0-0.175-0.152-0.318-0.341-0.318H7.234c-0.19-0.374-0.165-0.33-0.426-0.685l0.283-0.454
		c0.044-0.073,0.057-0.159,0.034-0.24c-0.024-0.082-0.08-0.151-0.159-0.191L6.213,9.98C6.05,9.892,5.841,9.945,5.747,10.097
		l-0.278,0.447c-0.443-0.035-0.399-0.037-0.857,0l-0.28-0.447C4.238,9.945,4.029,9.892,3.866,9.98l-0.752,0.404
		c-0.077,0.04-0.136,0.109-0.159,0.191c-0.023,0.081-0.012,0.167,0.035,0.24l0.285,0.454c-0.26,0.349-0.232,0.305-0.43,0.685H2.281
		c-0.187,0-0.341,0.144-0.341,0.318v0.806c0,0.176,0.154,0.312,0.341,0.312h0.563c0.192,0.376,0.166,0.337,0.427,0.691L2.99,14.535
		c-0.047,0.075-0.058,0.162-0.035,0.241c0.023,0.082,0.082,0.15,0.159,0.193l0.752,0.402c0.08,0.042,0.171,0.055,0.259,0.032
		c0.089-0.022,0.163-0.075,0.208-0.147l0.28-0.448c0.457,0.036,0.415,0.035,0.857,0L5.747,15.257z M5.041,13.756
		c-0.642,0-1.162-0.485-1.162-1.079c0-0.595,0.521-1.08,1.162-1.08c0.64,0,1.16,0.485,1.16,1.08
		C6.201,13.271,5.68,13.756,5.041,13.756z"/>
	<rect x="13.209" y="4.035" fill="#FFFFFF" width="1.876" height="9.404"/>
</g>
</svg>
