<?xml version="1.0" encoding="utf-8"?>
<!-- Generator: Adobe Illustrator 16.0.0, SVG Export Plug-In . SVG Version: 6.00 Build 0)  -->
<!DOCTYPE svg PUBLIC "-//W3C//DTD SVG 1.1//EN" "http://www.w3.org/Graphics/SVG/1.1/DTD/svg11.dtd">
<svg version="1.1" id="Layer_1" xmlns="http://www.w3.org/2000/svg" xmlns:xlink="http://www.w3.org/1999/xlink" x="0px" y="0px"
	 width="16px" height="16px" viewBox="0 0 16 16" enable-background="new 0 0 16 16" xml:space="preserve">
<g>
	<path fill="#FFFFFF" d="M14.883,10.567c0-0.509-1.042-0.923-1.706-0.923h-2.369c-1.298,1.651-2.403,3.074-2.519,3.167l-0.288,0.235
		l-0.289-0.235c-0.116-0.093-1.21-1.516-2.509-3.167h-2.38c-0.662,0-1.703,0.414-1.703,0.923l-1.012,3.245
		c0,0.51,0.536,0.922,1.197,0.922h13.39c0.662,0,1.198-0.412,1.198-0.922L14.883,10.567z"/>
	<path fill="#FFFFFF" d="M8,1.266c-0.142,0-3.575,0.184-3.578,3.625c-0.003,2.766,2.922,5.859,3.555,6.883
		c2.606-3.383,3.601-4.606,3.601-6.977C11.578,1.342,8.142,1.266,8,1.266z M7.966,6.547c-0.841,0-1.793-0.755-1.591-2.141
		C6.473,3.735,7.148,3.13,7.989,3.13c0.841,0,1.551,0.474,1.62,1.542C9.688,5.875,8.807,6.547,7.966,6.547z"/>
</g>
</svg>
